<?xml version="1.0" encoding="UTF-8"?>
<svg id="Layer_1" xmlns="http://www.w3.org/2000/svg" version="1.1" xmlns:xlink="http://www.w3.org/1999/xlink" viewBox="0 0 982.8 230.7">
  <!-- Generator: Adobe Illustrator 29.2.1, SVG Export Plug-In . SVG Version: 2.1.0 Build 116)  -->
  <defs>
    <style>
      .st0 {
        fill: #481335;
      }
    </style>
  </defs>
  <path class="st0" d="M930.7,220.1v-50.1c0-17.2,3.2-28.1,13.5-37.3,13.1-11.9,31.4-11.7,31.4-11.7v-37.1c-39.1,0-46.7,21.7-46.7,21.7l-11.2-18.3h-23.4v132.8h36.4ZM200.8,223.6h0c34.8,0,43.9-21.7,43.9-21.7l11.2,18.3h23.4V87.4h-36.4v65.9c0,17.2-5.3,28.4-13.7,33.7-4.1,2.7-10.7,3.9-16.9,3.9-21,0-26.3-11.9-26.3-31.6v-71.9h-36.6v82.6c0,37.1,18.6,53.6,51.4,53.6M670.9,83.9q.2,0,0,0c-34.8,0-43.9,21.7-43.9,21.7l-11-18.3h-23.4v132.8h36.4v-65.7c0-17.2,5.3-28.4,13.7-33.7,4.1-2.7,10.7-3.9,16.9-3.9,21,0,26.3,11.9,26.3,31.6v71.7h36.4v-82.6c-.1-37.1-18.5-53.6-51.4-53.6M469.2,83.9c-33.6,0-43.3,19.9-43.5,20.1l-.7,1.6-.9-1.4c-9.1-13.7-22-20.2-43.5-20.2-33.6,0-43.3,19.9-43.5,20.1l-.7,1.6-11.2-18.3h-23.4v132.8h36.4v-65.7c0-25.7,8.9-37.6,27.7-37.6s24.5,9.9,24.5,31.2v72.1h36.4v-66.6c0-25,8.7-36.8,27.2-36.8s25,3.2,25,31.6v71.7h36.4v-82.6c.2-37.1-14.2-53.6-46.2-53.6M44.9,182.2V34H7.1v186.1h129.8v-37.8H44.9ZM525.9,34l27,27,27-27-27-27-27,27ZM534,87.2h37.8v132.8h-37.8V87.2ZM807.3,83.9c-21.5,0-39.8,7.1-53.1,20.6-12.4,12.6-19.2,30.2-19.2,49.2s6.7,36.6,19.2,49.2c13.1,13.5,31.6,20.8,53.1,20.8,42.6,0,72.4-28.8,72.4-70s-29.8-69.8-72.4-69.8M807.1,192.7c-20.8,0-35.7-16.3-35.7-38.9s15.3-38.9,35.7-38.9,36.2,16.7,36.2,38.9-15.2,38.9-36.2,38.9"/>
</svg>